<svg width="454" height="73" viewBox="0 0 454 73" fill="none" xmlns="http://www.w3.org/2000/svg">
<path d="M21.6932 56.9027C17.3641 56.9027 13.6368 55.9223 10.5114 53.9616C7.4053 51.9815 5.01752 49.254 3.34801 45.7791C1.6785 42.3042 0.84375 38.3246 0.84375 33.8402C0.84375 29.2976 1.69792 25.2888 3.40625 21.8139C5.11458 18.3196 7.52178 15.5921 10.6278 13.6314C13.7339 11.6707 17.3932 10.6903 21.6058 10.6903C25.0031 10.6903 28.0315 11.3213 30.6911 12.5831C33.3506 13.8255 35.4957 15.5727 37.1264 17.8246C38.7765 20.0765 39.7569 22.7069 40.0675 25.7159H31.5938C31.1278 23.6193 30.0601 21.8139 28.3906 20.2997C26.7405 18.7855 24.5275 18.0284 21.7514 18.0284C19.3248 18.0284 17.1991 18.669 15.3743 19.9503C13.5689 21.2121 12.1615 23.0175 11.152 25.3665C10.1425 27.696 9.63778 30.4527 9.63778 33.6364C9.63778 36.8977 10.1328 39.7126 11.1229 42.081C12.1129 44.4493 13.5107 46.2839 15.3161 47.5845C17.1409 48.8852 19.286 49.5355 21.7514 49.5355C23.4015 49.5355 24.8963 49.2346 26.2358 48.6328C27.5947 48.0116 28.7304 47.1283 29.6428 45.983C30.5746 44.8376 31.2249 43.4593 31.5938 41.848H40.0675C39.7569 44.7405 38.8153 47.3224 37.2429 49.5938C35.6705 51.8651 33.5642 53.651 30.924 54.9517C28.3033 56.2524 25.2263 56.9027 21.6932 56.9027ZM68.2186 56.9027C64.0254 56.9027 60.3661 55.9418 57.2406 54.0199C54.1151 52.098 51.6885 49.4093 49.9608 45.9538C48.233 42.4983 47.3691 38.4605 47.3691 33.8402C47.3691 29.2005 48.233 25.1432 49.9608 21.6683C51.6885 18.1934 54.1151 15.495 57.2406 13.5732C60.3661 11.6513 64.0254 10.6903 68.2186 10.6903C72.4118 10.6903 76.0711 11.6513 79.1966 13.5732C82.322 15.495 84.7486 18.1934 86.4764 21.6683C88.2041 25.1432 89.068 29.2005 89.068 33.8402C89.068 38.4605 88.2041 42.4983 86.4764 45.9538C84.7486 49.4093 82.322 52.098 79.1966 54.0199C76.0711 55.9418 72.4118 56.9027 68.2186 56.9027ZM68.2477 49.5938C70.9655 49.5938 73.2174 48.8755 75.0034 47.4389C76.7894 46.0024 78.1094 44.0902 78.9636 41.7024C79.8372 39.3146 80.274 36.6842 80.274 33.8111C80.274 30.9574 79.8372 28.3366 78.9636 25.9489C78.1094 23.5417 76.7894 21.6101 75.0034 20.1541C73.2174 18.6982 70.9655 17.9702 68.2477 17.9702C65.5105 17.9702 63.2392 18.6982 61.4338 20.1541C59.6478 21.6101 58.318 23.5417 57.4444 25.9489C56.5903 28.3366 56.1632 30.9574 56.1632 33.8111C56.1632 36.6842 56.5903 39.3146 57.4444 41.7024C58.318 44.0902 59.6478 46.0024 61.4338 47.4389C63.2392 48.8755 65.5105 49.5938 68.2477 49.5938ZM98.7866 56V11.2727H107.144V18.5526H107.697C108.629 16.0871 110.153 14.1652 112.269 12.7869C114.385 11.3892 116.918 10.6903 119.869 10.6903C122.859 10.6903 125.363 11.3892 127.382 12.7869C129.42 14.1847 130.925 16.1065 131.895 18.5526H132.361C133.429 16.1648 135.127 14.2623 137.457 12.8452C139.787 11.4086 142.563 10.6903 145.785 10.6903C149.842 10.6903 153.152 11.9619 155.715 14.505C158.297 17.0481 159.588 20.8821 159.588 26.0071V56H150.881V26.8224C150.881 23.794 150.056 21.6004 148.406 20.2415C146.756 18.8826 144.785 18.2031 142.495 18.2031C139.66 18.2031 137.457 19.0767 135.885 20.8239C134.312 22.5516 133.526 24.7744 133.526 27.4922V56H124.848V26.2692C124.848 23.8426 124.091 21.8916 122.577 20.4162C121.063 18.9408 119.092 18.2031 116.666 18.2031C115.016 18.2031 113.492 18.6399 112.094 19.5135C110.716 20.3677 109.6 21.5616 108.745 23.0952C107.911 24.6288 107.493 26.4051 107.493 28.424V56H98.7866ZM171.257 56V11.2727H179.615V18.5526H180.168C181.1 16.0871 182.624 14.1652 184.74 12.7869C186.856 11.3892 189.389 10.6903 192.34 10.6903C195.329 10.6903 197.834 11.3892 199.852 12.7869C201.891 14.1847 203.395 16.1065 204.366 18.5526H204.832C205.9 16.1648 207.598 14.2623 209.928 12.8452C212.257 11.4086 215.033 10.6903 218.256 10.6903C222.313 10.6903 225.623 11.9619 228.186 14.505C230.767 17.0481 232.058 20.8821 232.058 26.0071V56H223.352V26.8224C223.352 23.794 222.527 21.6004 220.877 20.2415C219.227 18.8826 217.256 18.2031 214.965 18.2031C212.131 18.2031 209.928 19.0767 208.355 20.8239C206.783 22.5516 205.997 24.7744 205.997 27.4922V56H197.319V26.2692C197.319 23.8426 196.562 21.8916 195.048 20.4162C193.534 18.9408 191.563 18.2031 189.137 18.2031C187.486 18.2031 185.963 18.6399 184.565 19.5135C183.186 20.3677 182.07 21.5616 181.216 23.0952C180.381 24.6288 179.964 26.4051 179.964 28.424V56H171.257ZM263.005 56.9027C258.598 56.9027 254.803 55.9612 251.619 54.0781C248.455 52.1757 246.009 49.5064 244.281 46.0703C242.573 42.6148 241.719 38.5672 241.719 33.9276C241.719 29.3461 242.573 25.3082 244.281 21.8139C246.009 18.3196 248.416 15.5921 251.503 13.6314C254.609 11.6707 258.239 10.6903 262.393 10.6903C264.917 10.6903 267.363 11.1077 269.732 11.9425C272.1 12.7772 274.226 14.0876 276.109 15.8736C277.992 17.6596 279.477 19.9794 280.564 22.8331C281.651 25.6674 282.195 29.1132 282.195 33.1705V36.2571H246.64V29.7344H273.663C273.663 27.4437 273.197 25.415 272.265 23.6484C271.333 21.8625 270.023 20.455 268.334 19.4261C266.664 18.3973 264.704 17.8828 262.452 17.8828C260.006 17.8828 257.87 18.4846 256.045 19.6882C254.24 20.8724 252.842 22.4254 251.852 24.3473C250.882 26.2498 250.396 28.3172 250.396 30.5497V35.6456C250.396 38.6352 250.92 41.1783 251.969 43.2749C253.036 45.3714 254.522 46.973 256.424 48.0795C258.326 49.1667 260.549 49.7102 263.092 49.7102C264.742 49.7102 266.247 49.4773 267.606 49.0114C268.965 48.526 270.139 47.8078 271.129 46.8565C272.119 45.9053 272.876 44.7308 273.401 43.3331L281.641 44.8182C280.981 47.2448 279.797 49.3705 278.089 51.1953C276.4 53.0007 274.274 54.4081 271.712 55.4176C269.169 56.4077 266.266 56.9027 263.005 56.9027ZM300.562 29.4432V56H291.855V11.2727H300.212V18.5526H300.765C301.794 16.1842 303.406 14.2817 305.599 12.8452C307.812 11.4086 310.598 10.6903 313.956 10.6903C317.004 10.6903 319.674 11.331 321.964 12.6122C324.255 13.8741 326.031 15.7571 327.293 18.2614C328.555 20.7656 329.186 23.862 329.186 27.5504V56H320.479V28.5987C320.479 25.3568 319.635 22.8234 317.946 20.9986C316.257 19.1544 313.937 18.2322 310.986 18.2322C308.967 18.2322 307.172 18.669 305.599 19.5426C304.046 20.4162 302.814 21.6974 301.901 23.3864C301.008 25.0559 300.562 27.0748 300.562 29.4432ZM374.379 22.1925L366.488 23.5902C366.158 22.5807 365.634 21.6198 364.915 20.7074C364.216 19.795 363.265 19.0476 362.062 18.4652C360.858 17.8828 359.354 17.5916 357.548 17.5916C355.083 17.5916 353.025 18.1449 351.375 19.2514C349.725 20.3385 348.9 21.746 348.9 23.4737C348.9 24.9685 349.453 26.1721 350.559 27.0845C351.666 27.9969 353.452 28.7443 355.917 29.3267L363.023 30.9574C367.138 31.9086 370.205 33.3743 372.224 35.3544C374.243 37.3345 375.253 39.9067 375.253 43.071C375.253 45.75 374.476 48.1378 372.923 50.2344C371.39 52.3116 369.244 53.9422 366.488 55.1264C363.751 56.3106 360.577 56.9027 356.966 56.9027C351.957 56.9027 347.871 55.835 344.706 53.6996C341.542 51.5447 339.601 48.4872 338.883 44.527L347.298 43.2457C347.822 45.4394 348.9 47.0992 350.53 48.2251C352.161 49.3317 354.287 49.8849 356.907 49.8849C359.761 49.8849 362.042 49.2929 363.751 48.1087C365.459 46.9051 366.313 45.4394 366.313 43.7116C366.313 42.3139 365.789 41.1394 364.741 40.1882C363.712 39.237 362.13 38.5187 359.994 38.0334L352.423 36.3736C348.249 35.4223 345.163 33.9081 343.163 31.831C341.183 29.7538 340.193 27.1233 340.193 23.9396C340.193 21.2995 340.931 18.9893 342.406 17.0092C343.881 15.0291 345.92 13.4858 348.521 12.3793C351.122 11.2533 354.102 10.6903 357.461 10.6903C362.295 10.6903 366.099 11.7386 368.876 13.8352C371.652 15.9124 373.486 18.6982 374.379 22.1925ZM405.704 11.2727V18.2614H381.273V11.2727H405.704ZM387.825 0.556817H396.532V42.8672C396.532 44.5561 396.784 45.8277 397.289 46.6818C397.793 47.5166 398.444 48.0893 399.24 48.3999C400.055 48.6911 400.938 48.8366 401.89 48.8366C402.588 48.8366 403.2 48.7881 403.724 48.6911C404.248 48.594 404.656 48.5163 404.947 48.4581L406.52 55.6506C406.015 55.8447 405.297 56.0388 404.365 56.233C403.433 56.4465 402.268 56.563 400.87 56.5824C398.58 56.6212 396.444 56.2135 394.464 55.3594C392.484 54.5052 390.882 53.1851 389.659 51.3991C388.436 49.6132 387.825 47.371 387.825 44.6726V0.556817ZM420.839 72.7727C419.538 72.7727 418.354 72.666 417.286 72.4524C416.219 72.2583 415.423 72.0447 414.899 71.8118L416.995 64.6776C418.587 65.1046 420.004 65.2891 421.247 65.2308C422.489 65.1726 423.586 64.7067 424.537 63.8331C425.508 62.9595 426.362 61.5327 427.1 59.5526L428.177 56.5824L411.812 11.2727H421.13L432.458 45.983H432.923L444.251 11.2727H453.598L435.166 61.9695C434.311 64.299 433.224 66.2694 431.904 67.8807C430.584 69.5114 429.012 70.7344 427.187 71.5497C425.362 72.3651 423.246 72.7727 420.839 72.7727Z" fill="black"/>
</svg>
